<?xml version="1.0" encoding="utf-8"?>
<!-- Generator: Adobe Illustrator 21.1.0, SVG Export Plug-In . SVG Version: 6.00 Build 0)  -->
<svg version="1.1" id="レイヤー_1" xmlns="http://www.w3.org/2000/svg" xmlns:xlink="http://www.w3.org/1999/xlink" x="0px"
	 y="0px" viewBox="0 0 134.7 44" style="enable-background:new 0 0 134.7 44;" xml:space="preserve">
<style type="text/css">
	.st0{fill:#D13D72;}
</style>
<path class="st0" d="M62.5,28.3v-27h1.4v27H62.5z M65.3,28.3v-27h4.1v27H65.3z M71.5,28.3v-27h2.7v27H71.5z"/>
<title>Group</title>
<desc>Created with Sketch.</desc>
<g>
	<path d="M1.1,28.3v-27h2.7v27H1.1z M5.2,28.3v-27h4.1v27H5.2z M8.6,43.1c-1.4,0-2.5-0.5-3.3-1.4l0.6-1.1l0-0.1l0.1,0
		c0,0,0,0.1,0,0.2c0,0.1,0,0.1,0.1,0.2c0,0.1,0.1,0.1,0.2,0.2C7,41.7,7.8,42,8.8,42c0.6,0,1.1-0.2,1.6-0.5c0.4-0.4,0.6-0.8,0.6-1.3
		c0-0.3-0.1-0.6-0.2-0.9c-0.1-0.2-0.4-0.4-0.7-0.6c-0.3-0.2-0.9-0.5-1.6-0.8c-1-0.4-1.8-0.9-2.2-1.4c-0.4-0.5-0.6-1.1-0.6-1.7
		c0-0.8,0.3-1.4,0.9-1.9c0.6-0.5,1.4-0.7,2.3-0.7c0.6,0,1.1,0.1,1.6,0.4c0.5,0.2,0.9,0.6,1.3,1L11,34.5l-0.1-0.1c0,0,0-0.1,0-0.1
		c0-0.1,0-0.2-0.1-0.2c0-0.1-0.1-0.2-0.2-0.2c-0.2-0.2-0.5-0.4-0.9-0.5c-0.3-0.1-0.7-0.1-1.1-0.1c-0.5,0-1,0.2-1.3,0.5
		c-0.3,0.3-0.5,0.7-0.5,1.1c0,0.3,0.1,0.6,0.2,0.9c0.2,0.2,0.4,0.5,0.8,0.7c0.4,0.2,0.9,0.5,1.6,0.8c1,0.4,1.7,0.9,2.1,1.3
		c0.4,0.5,0.5,1,0.5,1.7c0,0.5-0.1,1-0.4,1.5c-0.3,0.5-0.7,0.8-1.2,1.1C10,42.9,9.3,43.1,8.6,43.1z M10.7,28.3v-27h1.4v27H10.7z"/>
	<path d="M16.2,28.3v-27h1.4v27H16.2z M21.2,41.9h2v-5.8h-1.9v-1h3.1v6.8h1.8v1h-5V41.9z M23.7,33.5c-0.2,0-0.5-0.1-0.6-0.2
		c-0.2-0.2-0.2-0.4-0.2-0.6c0-0.2,0.1-0.4,0.2-0.6c0.2-0.2,0.4-0.3,0.6-0.3c0.2,0,0.4,0.1,0.6,0.3c0.2,0.2,0.3,0.4,0.3,0.6
		c0,0.2-0.1,0.5-0.3,0.6C24.1,33.4,23.9,33.5,23.7,33.5z M23,28.3v-27h2.7v27H23z M27.1,28.3v-27h1.4v27H27.1z"/>
	<path d="M31.3,28.3v-27h1.4v27H31.3z M35.4,28.3v-27h5.5v27H35.4z M42.1,42.2c-0.7,0.6-1.6,0.9-2.5,0.9c-0.9,0-1.5-0.3-1.8-0.8
		c-0.4-0.5-0.5-1.4-0.5-2.6c0-0.2,0-0.5,0-1l0.2-2.6h-1.7v-1h1.8l0.1-2.1l1.3-0.2h0.2v0.1c-0.1,0.1-0.1,0.2-0.1,0.3
		c-0.1,0.1-0.1,0.2-0.1,0.4l-0.2,1.6h2.6v1h-2.7l-0.1,2.7c0,0.5,0,0.7,0,0.9c0,0.9,0.1,1.5,0.3,1.9c0.2,0.3,0.5,0.5,1,0.5
		c0.3,0,0.7-0.1,1-0.2c0.3-0.1,0.6-0.3,1-0.6L42.1,42.2z M42.2,28.3v-27h1.4v27H42.2z"/>
	<path d="M46.3,28.3v-27h1.4v27H46.3z M49.1,28.3v-27h2.7v27H49.1z M54.3,43.1c-1.2,0-2.1-0.4-2.7-1.1c-0.7-0.7-1.1-1.7-1.1-3
		c0-0.9,0.2-1.6,0.5-2.2c0.3-0.6,0.7-1.1,1.3-1.4c0.5-0.3,1.1-0.5,1.8-0.5c0.9,0,1.7,0.3,2.3,0.9c0.6,0.6,0.9,1.6,0.9,2.8
		c0,0.1,0,0.3,0,0.5h-5.5c0,0.9,0.3,1.7,0.8,2.1c0.5,0.5,1.1,0.7,1.9,0.7c0.8,0,1.5-0.3,2-0.9l0.7,0.7
		C56.3,42.7,55.4,43.1,54.3,43.1z M55.9,38.2c0-0.7-0.2-1.3-0.5-1.7c-0.4-0.4-0.9-0.6-1.5-0.6c-0.5,0-1,0.2-1.5,0.6
		c-0.4,0.4-0.7,1-0.8,1.8H55.9z M54.6,28.3v-27h1.4v27H54.6z"/>
	<path class="st0" d="M76.5,28.3v-27h1.4v27H76.5z M79.3,28.3v-27h4.1v27H79.3z M80.7,32.3h1.1l4.4,7.9v-7.9h1.3v0.1
		c-0.1,0.1-0.1,0.1-0.1,0.2c0,0.1,0,0.2,0,0.4v9.8h-0.9l-4.7-8.3v8.3h-1.1V32.3z M87.5,28.3v-27h2.7v27H87.5z"/>
	<path class="st0" d="M91.6,28.3v-27H93v27H91.6z M95.7,28.3v-27h1.4v27H95.7z M99.1,35c1.1,0,1.9,0.3,2.5,0.9
		c0.6,0.6,0.9,1.6,0.9,3v4.1h-1.3v-1.2c-0.5,0.9-1.3,1.4-2.7,1.4c-0.9,0-1.5-0.2-2-0.6c-0.5-0.4-0.7-0.9-0.7-1.6
		c0-0.5,0.2-1,0.5-1.4c0.3-0.4,0.8-0.7,1.4-1c0.6-0.2,1.2-0.3,2-0.3c0.6,0,1.2,0,1.7,0.1c-0.1-0.9-0.3-1.5-0.7-1.8
		c-0.4-0.4-1-0.5-1.7-0.5c-0.4,0-0.8,0.1-1.1,0.2c-0.4,0.2-0.7,0.4-1,0.6L96.3,36C97,35.3,97.9,35,99.1,35z M98.6,42.2
		c0.9,0,1.5-0.3,2-0.8c0.5-0.5,0.7-1.2,0.8-2.1c-0.5-0.1-1.1-0.1-1.6-0.1c-0.9,0-1.5,0.2-2.1,0.5c-0.5,0.3-0.7,0.7-0.7,1.3
		C97,41.7,97.5,42.2,98.6,42.2z M98.5,28.3v-27h2.7v27H98.5z"/>
	<path class="st0" d="M106.7,28.3v-27h5.5v27H106.7z M110.6,35.1h1.1v0.8c0.2-0.3,0.4-0.5,0.7-0.7c0.3-0.2,0.6-0.3,0.9-0.3
		c0.3,0,0.6,0.1,0.9,0.3c0.2,0.2,0.4,0.5,0.5,0.8c0.2-0.3,0.4-0.6,0.7-0.8c0.3-0.2,0.7-0.3,1.1-0.3c0.5,0,0.9,0.2,1.1,0.5
		c0.2,0.4,0.3,0.9,0.3,1.5v5.9h-1.1v-5.5c0-0.7-0.1-1.1-0.2-1.3c-0.1-0.2-0.3-0.3-0.5-0.3c-0.2,0-0.4,0.1-0.6,0.3s-0.3,0.4-0.5,0.7
		c-0.1,0.3-0.2,0.6-0.2,0.9v5.1h-1.1v-5.4c0-0.6-0.1-1.1-0.2-1.3c-0.1-0.2-0.4-0.4-0.7-0.4c-0.2,0-0.3,0.1-0.5,0.2
		c-0.2,0.2-0.3,0.4-0.5,0.7c-0.1,0.3-0.1,0.6-0.1,1v5.2h-1.1V35.1z M113.6,28.3v-27h4.1v27H113.6z M119,28.3v-27h1.4v27H119z"/>
	<path class="st0" d="M121.8,28.3v-27h1.4v27H121.8z M124.5,28.3v-27h2.7v27H124.5z M129.7,43.1c-1.2,0-2.1-0.4-2.7-1.1
		c-0.7-0.7-1.1-1.7-1.1-3c0-0.9,0.2-1.6,0.5-2.2c0.3-0.6,0.7-1.1,1.3-1.4c0.5-0.3,1.1-0.5,1.8-0.5c0.9,0,1.7,0.3,2.3,0.9
		c0.6,0.6,0.9,1.6,0.9,2.8c0,0.1,0,0.3,0,0.5h-5.5c0,0.9,0.3,1.7,0.8,2.1c0.5,0.5,1.1,0.7,1.9,0.7c0.8,0,1.5-0.3,2-0.9l0.7,0.7
		C131.8,42.7,130.9,43.1,129.7,43.1z M131.4,38.2c0-0.7-0.2-1.3-0.5-1.7c-0.4-0.4-0.9-0.6-1.5-0.6c-0.5,0-1,0.2-1.5,0.6
		c-0.4,0.4-0.7,1-0.8,1.8H131.4z M130,28.3v-27h1.4v27H130z"/>
</g>
</svg>
